<svg width="56" height="56" viewBox="0 0 56 56" fill="none" xmlns="http://www.w3.org/2000/svg">
<circle cx="28" cy="28" r="28" fill="#883C88" fill-opacity="0.1"/>
<g clip-path="url(#clip0)">
<path d="M25.1337 29.6997C23.2363 29.6955 21.4178 28.9399 20.0761 27.5982C18.7344 26.2565 17.9788 24.438 17.9746 22.5406V17.1023C17.9746 16.9617 18.0305 16.8268 18.1299 16.7273C18.2294 16.6279 18.3643 16.572 18.5049 16.572C18.6456 16.572 18.7804 16.6279 18.8799 16.7273C18.9793 16.8268 19.0352 16.9617 19.0352 17.1023V22.5326C19.0352 24.1522 19.6786 25.7054 20.8237 26.8505C21.9689 27.9957 23.5221 28.6391 25.1417 28.6391C26.7612 28.6391 28.3144 27.9957 29.4596 26.8505C30.6047 25.7054 31.2481 24.1522 31.2481 22.5326V17.1023C31.2481 16.9617 31.304 16.8268 31.4034 16.7273C31.5029 16.6279 31.6377 16.572 31.7784 16.572C31.919 16.572 32.0539 16.6279 32.1534 16.7273C32.2528 16.8268 32.3087 16.9617 32.3087 17.1023V22.5326C32.3066 24.4342 31.5497 26.2571 30.2044 27.601C28.859 28.9448 27.0352 29.6997 25.1337 29.6997Z" fill="black"/>
<path d="M31.7704 17.6326H18.4996C18.359 17.6326 18.2241 17.5767 18.1246 17.4773C18.0252 17.3778 17.9693 17.243 17.9693 17.1023V12.8811C17.97 11.9409 18.3437 11.0393 19.0083 10.3742C19.6729 9.70909 20.5741 9.33478 21.5144 9.33337H28.753C29.6937 9.33408 30.5957 9.70808 31.2609 10.3733C31.926 11.0384 32.3 11.9404 32.3008 12.8811V17.1023C32.3008 17.243 32.2449 17.3778 32.1454 17.4773C32.046 17.5767 31.9111 17.6326 31.7704 17.6326ZM19.0273 16.572H31.2401V12.8811C31.2394 12.2217 30.9772 11.5895 30.5109 11.1232C30.0446 10.6569 29.4124 10.3947 28.753 10.394H21.5144C20.855 10.3947 20.2228 10.6569 19.7565 11.1232C19.2902 11.5895 19.028 12.2217 19.0273 12.8811V16.572Z" fill="black"/>
<path d="M26.7935 14.0901H23.4765C23.3359 14.0901 23.201 14.0343 23.1015 13.9348C23.0021 13.8354 22.9462 13.7005 22.9462 13.5598C22.9462 13.4192 23.0021 13.2843 23.1015 13.1849C23.201 13.0854 23.3359 13.0295 23.4765 13.0295H26.7935C26.9342 13.0295 27.0691 13.0854 27.1685 13.1849C27.268 13.2843 27.3238 13.4192 27.3238 13.5598C27.3238 13.7005 27.268 13.8354 27.1685 13.9348C27.0691 14.0343 26.9342 14.0901 26.7935 14.0901Z" fill="black"/>
<path d="M25.1337 15.7474C24.9931 15.7474 24.8582 15.6915 24.7587 15.5921C24.6593 15.4926 24.6034 15.3577 24.6034 15.2171V11.9001C24.6034 11.7594 24.6593 11.6245 24.7587 11.5251C24.8582 11.4256 24.9931 11.3698 25.1337 11.3698C25.2743 11.3698 25.4092 11.4256 25.5087 11.5251C25.6081 11.6245 25.664 11.7594 25.664 11.9001V15.2171C25.664 15.3577 25.6081 15.4926 25.5087 15.5921C25.4092 15.6915 25.2743 15.7474 25.1337 15.7474Z" fill="black"/>
<path d="M11.5606 43.2728C11.42 43.2728 11.2851 43.2169 11.1856 43.1175C11.0862 43.018 11.0303 42.8831 11.0303 42.7425C11.0308 40.2086 11.7138 37.7217 13.0075 35.543C14.3013 33.3643 16.1579 31.5743 18.3825 30.3611C20.607 29.1479 23.1173 28.5563 25.6495 28.6485C28.1817 28.7407 30.6423 29.5132 32.7727 30.8849C32.8894 30.9619 32.971 31.0818 32.9997 31.2185C33.0284 31.3553 33.002 31.4979 32.9262 31.6153C32.8504 31.7327 32.7313 31.8154 32.5948 31.8455C32.4583 31.8755 32.3155 31.8505 32.1973 31.7758C30.2271 30.5075 27.9515 29.7934 25.6099 29.7083C23.2682 29.6233 20.9468 30.1705 18.8897 31.2925C16.8326 32.4145 15.1157 34.0699 13.9193 36.0847C12.723 38.0995 12.0914 40.3993 12.0909 42.7425C12.0909 42.8831 12.035 43.018 11.9356 43.1175C11.8361 43.2169 11.7013 43.2728 11.5606 43.2728Z" fill="black"/>
<path d="M25.1337 35.8484C25.0505 35.8482 24.9685 35.8285 24.8943 35.7907C24.8201 35.7529 24.7559 35.6982 24.7068 35.631L20.6765 30.1397C20.5935 30.0262 20.5591 29.8843 20.5807 29.7453C20.6023 29.6063 20.6783 29.4816 20.7919 29.3986C20.9054 29.3157 21.0473 29.2812 21.1863 29.3028C21.3253 29.3245 21.45 29.4004 21.533 29.514L25.1337 34.4299L28.7371 29.514C28.8235 29.4103 28.9461 29.3435 29.0801 29.3271C29.214 29.3107 29.3492 29.346 29.458 29.4258C29.5668 29.5055 29.6411 29.6238 29.6658 29.7564C29.6905 29.8891 29.6637 30.0262 29.5909 30.1397L25.5633 35.6416C25.5128 35.7072 25.4476 35.7601 25.373 35.796C25.2984 35.8319 25.2165 35.8499 25.1337 35.8484Z" fill="black"/>
<path d="M22.3523 43.2727H21.2917C21.151 43.2727 21.0161 43.2169 20.9167 43.1174C20.8172 43.0179 20.7614 42.8831 20.7614 42.7424C20.7614 42.6018 20.8172 42.4669 20.9167 42.3674C21.0161 42.268 21.151 42.2121 21.2917 42.2121H21.822V37.7045C21.822 37.0716 21.5706 36.4647 21.123 36.0171C20.6755 35.5696 20.0685 35.3182 19.4356 35.3182C18.8027 35.3182 18.1957 35.5696 17.7482 36.0171C17.3007 36.4647 17.0493 37.0716 17.0493 37.7045V42.2121H17.5796C17.7202 42.2121 17.8551 42.268 17.9545 42.3674C18.054 42.4669 18.1099 42.6018 18.1099 42.7424C18.1099 42.8831 18.054 43.0179 17.9545 43.1174C17.8551 43.2169 17.7202 43.2727 17.5796 43.2727H16.519C16.3783 43.2727 16.2434 43.2169 16.144 43.1174C16.0445 43.0179 15.9886 42.8831 15.9886 42.7424V37.7045C15.9886 36.7903 16.3518 35.9136 16.9982 35.2672C17.6447 34.6207 18.5214 34.2576 19.4356 34.2576C20.3498 34.2576 21.2266 34.6207 21.873 35.2672C22.5194 35.9136 22.8826 36.7903 22.8826 37.7045V42.7424C22.8826 42.8831 22.8267 43.0179 22.7273 43.1174C22.6278 43.2169 22.4929 43.2727 22.3523 43.2727Z" fill="black"/>
<path d="M19.3508 35.3182H19.303C19.2335 35.3122 19.1659 35.2926 19.104 35.2604C19.0421 35.2282 18.9872 35.1841 18.9424 35.1307C18.8975 35.0772 18.8637 35.0155 18.8428 34.9489C18.8219 34.8824 18.8143 34.8123 18.8205 34.7429C18.8205 34.597 19.1439 31.1235 19.9686 29.7341C19.9991 29.6665 20.0435 29.6061 20.0989 29.5567C20.1543 29.5073 20.2194 29.4701 20.2901 29.4475C20.3608 29.4249 20.4354 29.4173 20.5092 29.4254C20.5829 29.4334 20.6542 29.4568 20.7184 29.4941C20.7825 29.5314 20.8381 29.5817 20.8816 29.6419C20.9251 29.702 20.9554 29.7706 20.9707 29.8432C20.986 29.9158 20.9859 29.9908 20.9704 30.0634C20.9549 30.1359 20.9243 30.2044 20.8807 30.2644C20.3 31.2455 19.958 33.8891 19.8758 34.8251C19.8664 34.9583 19.8072 35.083 19.7099 35.1745C19.6125 35.2659 19.4843 35.3172 19.3508 35.3182Z" fill="black"/>
<path d="M18.4996 20.9337C18.359 20.9337 18.2241 20.8778 18.1246 20.7784C18.0252 20.6789 17.9693 20.544 17.9693 20.4034C17.9693 20.2628 18.0252 20.1279 18.1246 20.0284C18.2241 19.929 18.359 19.8731 18.4996 19.8731C22.4292 19.8731 25.6587 16.7549 25.6932 16.7231C25.7948 16.6325 25.9275 16.5844 26.0636 16.5889C26.1997 16.5934 26.3289 16.6501 26.4244 16.7473C26.5198 16.8444 26.5742 16.9746 26.5763 17.1108C26.5784 17.247 26.528 17.3787 26.4356 17.4788C26.2898 17.622 22.8693 20.9337 18.4996 20.9337Z" fill="black"/>
<path d="M33.0379 28.4244C32.9179 28.4244 32.8015 28.3838 32.7076 28.3092C32.6137 28.2345 32.5478 28.1303 32.5208 28.0134C32.1125 26.266 31.2852 21.952 31.2481 21.769C31.2449 21.7355 31.2449 21.7018 31.2481 21.6683C31.2481 19.8122 28.3765 18.0887 27.2708 17.5823C27.1429 17.5239 27.0433 17.4171 26.9941 17.2853C26.9448 17.1536 26.95 17.0076 27.0083 16.8796C27.0667 16.7517 27.1735 16.6521 27.3053 16.6029C27.4371 16.5536 27.583 16.5588 27.711 16.6171C27.8966 16.702 32.2557 18.7384 32.3087 21.6153C32.4015 22.0978 33.1811 26.1414 33.5629 27.7694C33.5819 27.8482 33.5827 27.9303 33.5651 28.0094C33.5474 28.0886 33.5119 28.1626 33.4612 28.2258C33.4105 28.2891 33.346 28.3398 33.2726 28.3743C33.1992 28.4087 33.1189 28.4258 33.0379 28.4244Z" fill="black"/>
<path d="M18.3909 31.5054C18.2884 31.5056 18.188 31.4761 18.1019 31.4205C17.5085 30.9973 17.0495 30.4122 16.7796 29.7352C16.5097 29.0581 16.4404 28.3177 16.5799 27.6023C16.8451 26.1307 17.9667 20.3584 17.9773 20.3001C18.0044 20.1619 18.0852 20.0401 18.2021 19.9615C18.3189 19.883 18.4622 19.8541 18.6004 19.8811C18.7386 19.9082 18.8603 19.9891 18.9389 20.1059C19.0175 20.2228 19.0464 20.366 19.0193 20.5042C19.0193 20.5626 17.8845 26.3243 17.6246 27.7853C17.5237 28.2962 17.5697 28.8253 17.7575 29.3111C17.9452 29.7968 18.2669 30.2194 18.6852 30.5296C18.7815 30.5918 18.855 30.6835 18.8948 30.7909C18.9346 30.8984 18.9385 31.0158 18.906 31.1257C18.8734 31.2355 18.8062 31.3319 18.7143 31.4004C18.6224 31.4688 18.5108 31.5056 18.3962 31.5054H18.3909Z" fill="black"/>
<path d="M37.2803 43.2384C35.3553 43.2384 34.4777 43.2384 33.6902 42.0584C33.6515 42.0005 33.6247 41.9354 33.6111 41.8671C33.5976 41.7987 33.5977 41.7284 33.6113 41.6601C33.625 41.5917 33.652 41.5268 33.6908 41.4689C33.7295 41.411 33.7793 41.3613 33.8373 41.3226C33.8953 41.284 33.9603 41.2571 34.0287 41.2436C34.097 41.2301 34.1674 41.2302 34.2357 41.2438C34.304 41.2575 34.369 41.2845 34.4269 41.3232C34.4848 41.362 34.5345 41.4118 34.5731 41.4698C35.0318 42.1592 35.3686 42.1777 37.283 42.1777C39.1974 42.1777 39.5314 42.1592 39.9928 41.4698C40.0315 41.4118 40.0811 41.362 40.139 41.3232C40.1969 41.2845 40.2619 41.2575 40.3302 41.2438C40.3986 41.2302 40.4689 41.2301 40.5373 41.2436C40.6056 41.2571 40.6706 41.284 40.7286 41.3226C40.7866 41.3613 40.8364 41.411 40.8751 41.4689C40.9139 41.5268 40.9409 41.5917 40.9546 41.6601C40.9682 41.7284 40.9683 41.7987 40.9548 41.8671C40.9413 41.9354 40.9144 42.0005 40.8758 42.0584C40.0883 43.2384 39.208 43.2384 37.2803 43.2384Z" fill="black"/>
<path d="M37.2803 37.2538C35.9193 37.251 34.6148 36.7089 33.6527 35.7463C32.6905 34.7836 32.1491 33.4789 32.147 32.1178C32.147 29.4663 34.2125 27.6898 37.2856 27.6898C40.3587 27.6898 42.4242 29.469 42.4242 32.1178C42.4221 33.4807 41.8793 34.7871 40.9148 35.75C39.9504 36.713 38.6432 37.2538 37.2803 37.2538ZM37.2803 28.7478C35.4004 28.7478 33.2049 29.6307 33.2049 32.1152C33.232 33.1784 33.6735 34.189 34.435 34.9314C35.1966 35.6738 36.2181 36.0893 37.2816 36.0893C38.3452 36.0893 39.3667 35.6738 40.1282 34.9314C40.8898 34.189 41.3312 33.1784 41.3583 32.1152C41.361 29.6307 39.1629 28.7478 37.2803 28.7478Z" fill="black"/>
<path d="M32.7382 31.1448C32.6592 31.1443 32.5813 31.1262 32.5102 31.0917C32.2332 30.9594 31.9912 30.7639 31.8035 30.5209C31.6158 30.278 31.4878 29.9944 31.4296 29.693C31.3715 29.3916 31.3849 29.0807 31.4687 28.7854C31.5526 28.4901 31.7046 28.2186 31.9124 27.9927C32.1203 27.7668 32.3783 27.5929 32.6656 27.4848C32.953 27.3768 33.2617 27.3376 33.5669 27.3706C33.8721 27.4035 34.1653 27.5077 34.4229 27.6745C34.6806 27.8414 34.8955 28.0665 35.0504 28.3315C35.1081 28.4519 35.1183 28.5896 35.079 28.7171C35.0396 28.8447 34.9537 28.9527 34.8382 29.0196C34.7227 29.0866 34.5862 29.1075 34.456 29.0783C34.3258 29.049 34.2114 28.9717 34.1356 28.8618C34.0646 28.7398 33.9659 28.6362 33.8475 28.5593C33.7292 28.4823 33.5944 28.4343 33.454 28.419C33.3137 28.4037 33.1717 28.4216 33.0396 28.4712C32.9074 28.5209 32.7887 28.6008 32.6931 28.7047C32.5975 28.8085 32.5276 28.9334 32.4891 29.0692C32.4506 29.205 32.4445 29.348 32.4713 29.4866C32.4982 29.6252 32.5572 29.7556 32.6436 29.8672C32.73 29.9788 32.8415 30.0686 32.9689 30.1292C33.0769 30.1815 33.164 30.2689 33.2159 30.3771C33.2678 30.4853 33.2815 30.6079 33.2547 30.7249C33.2279 30.8418 33.1623 30.9463 33.0685 31.0211C32.9747 31.0959 32.8582 31.1367 32.7382 31.1368V31.1448Z" fill="black"/>
<path d="M41.7879 31.1448C41.6679 31.1447 41.5515 31.1039 41.4577 31.0291C41.3639 30.9542 41.2982 30.8498 41.2714 30.7328C41.2446 30.6159 41.2583 30.4933 41.3102 30.3851C41.3621 30.2769 41.4492 30.1895 41.5572 30.1372C41.68 30.0785 41.7872 29.9917 41.8703 29.884C41.9535 29.7762 42.0101 29.6505 42.0358 29.5168C42.0615 29.3832 42.0554 29.2454 42.0182 29.1145C41.9809 28.9836 41.9134 28.8633 41.8212 28.7633C41.7289 28.6632 41.6145 28.5862 41.4871 28.5384C41.3596 28.4906 41.2228 28.4734 41.0875 28.4882C40.9522 28.5029 40.8223 28.5492 40.7081 28.6233C40.594 28.6974 40.4988 28.7973 40.4303 28.9149C40.3546 29.0248 40.2401 29.1021 40.1099 29.1313C39.9797 29.1606 39.8432 29.1396 39.7277 29.0727C39.6122 29.0058 39.5263 28.8977 39.4869 28.7702C39.4476 28.6426 39.4578 28.5049 39.5155 28.3846C39.6679 28.124 39.8793 27.9027 40.1327 27.7386C40.3861 27.5745 40.6745 27.4722 40.9746 27.4397C41.2748 27.4073 41.5784 27.4458 41.861 27.552C42.1436 27.6582 42.3973 27.8292 42.6018 28.0513C42.8063 28.2734 42.9559 28.5403 43.0385 28.8307C43.1211 29.1211 43.1345 29.4268 43.0775 29.7232C43.0205 30.0197 42.8948 30.2987 42.7104 30.5377C42.526 30.7768 42.2882 30.9693 42.0159 31.0997C41.9442 31.1314 41.8663 31.1468 41.7879 31.1448Z" fill="black"/>
<path d="M38.0758 34.2576H36.4848C36.3442 34.2576 36.2093 34.2018 36.1099 34.1023C36.0104 34.0029 35.9545 33.868 35.9545 33.7273C35.9545 33.5867 36.0104 33.4518 36.1099 33.3523C36.2093 33.2529 36.3442 33.197 36.4848 33.197H38.0758C38.2164 33.197 38.3513 33.2529 38.4507 33.3523C38.5502 33.4518 38.6061 33.5867 38.6061 33.7273C38.6061 33.868 38.5502 34.0029 38.4507 34.1023C38.3513 34.2018 38.2164 34.2576 38.0758 34.2576Z" fill="black"/>
<path d="M37.2803 35.0531C37.1397 35.0531 37.0048 34.9972 36.9053 34.8978C36.8059 34.7983 36.75 34.6635 36.75 34.5228V33.8918C36.75 33.7511 36.8059 33.6162 36.9053 33.5168C37.0048 33.4173 37.1397 33.3615 37.2803 33.3615C37.4209 33.3615 37.5558 33.4173 37.6553 33.5168C37.7547 33.6162 37.8106 33.7511 37.8106 33.8918V34.5228C37.8106 34.6635 37.7547 34.7983 37.6553 34.8978C37.5558 34.9972 37.4209 35.0531 37.2803 35.0531Z" fill="black"/>
<path d="M32.5765 43.2728C31.9341 43.2635 31.3126 43.0433 30.8076 42.6461C30.3027 42.2489 29.9422 41.6968 29.7818 41.0747C29.5167 39.9584 29.5167 39.2531 29.8057 38.7122C30.161 38.0175 30.8928 37.7656 31.5583 37.6091C32.2849 37.4394 32.9875 37.3201 33.5788 37.7178C34.0773 38.0546 34.3981 38.6963 34.6871 39.9266C34.8638 40.6201 34.8032 41.3529 34.5148 42.008C34.3849 42.3046 34.1888 42.5676 33.9415 42.7767C33.6942 42.9858 33.4024 43.1356 33.0883 43.2144C32.9205 43.2534 32.7488 43.273 32.5765 43.2728ZM30.8133 40.8334C30.9318 41.2662 31.2032 41.6414 31.5771 41.8895C31.951 42.1376 32.4021 42.2419 32.847 42.183C33.0075 42.1426 33.1563 42.0652 33.2815 41.957C33.4067 41.8488 33.5049 41.7128 33.5682 41.5599C33.7547 41.1206 33.7893 40.6316 33.6663 40.1705C33.4542 39.2637 33.242 38.7625 32.9955 38.5981C32.8099 38.4709 32.489 38.4841 31.8102 38.6432C31.0439 38.8235 30.8477 39.025 30.7496 39.1974C30.6011 39.4864 30.6224 40.0088 30.8159 40.8334H30.8133Z" fill="black"/>
<path d="M41.9894 43.2728C41.8171 43.2731 41.6454 43.2535 41.4776 43.2145C41.164 43.1346 40.8726 42.9848 40.6251 42.7764C40.3776 42.5679 40.1805 42.3061 40.0485 42.0107C39.757 41.3555 39.6953 40.6211 39.8735 39.9266C40.1625 38.6936 40.4833 38.0546 40.9818 37.7179C41.5731 37.3175 42.2757 37.4395 43.0023 37.6092C43.6678 37.7656 44.3996 38.0175 44.7549 38.7122C45.0201 39.2425 45.0386 39.9584 44.7788 41.0747C44.6206 41.697 44.2615 42.2498 43.7572 42.6472C43.2528 43.0447 42.6314 43.2645 41.9894 43.2728ZM41.931 38.5001C41.8076 38.4921 41.6847 38.5217 41.5784 38.5849C41.3345 38.7493 41.1223 39.2504 40.9076 40.1573C40.7844 40.6177 40.8199 41.1062 41.0083 41.544C41.0717 41.6958 41.1689 41.831 41.2925 41.9395C41.4161 42.0479 41.5629 42.1267 41.7216 42.1698C42.1652 42.2266 42.6144 42.1214 42.9866 41.8734C43.3588 41.6254 43.6289 41.2514 43.7473 40.8201C43.9409 39.9929 43.9621 39.4732 43.8136 39.1842C43.7235 39.0092 43.5299 38.8076 42.753 38.63C42.4839 38.5622 42.2084 38.5231 41.931 38.5133V38.5001Z" fill="black"/>
<path d="M31.5398 38.5876C31.4467 38.5875 31.3553 38.5629 31.2748 38.5164C31.1943 38.4698 31.1274 38.4028 31.0809 38.3222C31.0344 38.2416 31.01 38.1502 31.01 38.0572C31.01 37.9641 31.0345 37.8727 31.0811 37.7922C31.1314 37.7047 32.3273 35.6709 34.7932 35.5357C34.9338 35.528 35.0718 35.5764 35.1767 35.6704C35.2816 35.7644 35.3449 35.8962 35.3526 36.0369C35.3604 36.1775 35.3119 36.3155 35.2179 36.4204C35.124 36.5253 34.9922 36.5886 34.8515 36.5963C32.9557 36.6997 32.0117 38.3065 32.0038 38.3225C31.9568 38.4038 31.8891 38.4712 31.8076 38.5178C31.7261 38.5643 31.6337 38.5884 31.5398 38.5876Z" fill="black"/>
<path d="M43.0208 38.5876C42.9265 38.5889 42.8335 38.565 42.7515 38.5184C42.6694 38.4718 42.6013 38.4041 42.5542 38.3224C42.5144 38.2508 41.589 36.6069 39.7409 36.6069C39.6003 36.6069 39.4654 36.551 39.3659 36.4515C39.2665 36.3521 39.2106 36.2172 39.2106 36.0766C39.2106 35.9359 39.2665 35.801 39.3659 35.7016C39.4654 35.6021 39.6003 35.5463 39.7409 35.5463C42.2333 35.5463 43.4371 37.7232 43.4875 37.816C43.5344 37.8971 43.5589 37.9893 43.5586 38.083C43.5583 38.1767 43.5331 38.2687 43.4857 38.3495C43.4382 38.4303 43.3702 38.4972 43.2886 38.5432C43.2069 38.5892 43.1145 38.6127 43.0208 38.6114V38.5876Z" fill="black"/>
</g>
<defs>
<clipPath id="clip0">
<rect width="33.9394" height="42.4242" fill="white" transform="translate(11.0303 9.33337)"/>
</clipPath>
</defs>
</svg>
