<svg width="56" height="56" viewBox="0 0 56 56" fill="none" xmlns="http://www.w3.org/2000/svg">
<circle cx="28" cy="28" r="28" fill="#883C88" fill-opacity="0.1"/>
<path d="M26.8255 21.6632C26.7941 21.6169 26.7534 21.5775 26.7068 21.547L21.5425 18.1908C21.5124 18.1713 21.4798 18.1556 21.4455 18.1446C21.1462 18.0437 20.8257 18.0899 20.5667 18.2675C20.3072 18.4452 20.1495 18.7275 20.1338 19.0416C20.1321 19.0776 20.1351 19.1137 20.1427 19.1489L21.3988 25.1787C21.4098 25.2334 21.4323 25.2856 21.4637 25.3314L34.2373 44.006C34.6562 44.6186 35.3366 44.9488 36.0284 44.9488C36.4498 44.9488 36.8754 44.8267 37.2484 44.5711L39.0349 43.3489C39.5126 43.0221 39.8344 42.5291 39.9412 41.961C40.0476 41.3921 39.9268 40.816 39.5995 40.3386L26.8255 21.6632ZM32.8354 40.4552L36.7982 37.7451L37.7258 39.1012L33.7634 41.8118L32.8354 40.4552ZM36.3196 37.0452L32.3568 39.7553L22.4981 25.342L26.4605 22.6314L36.3196 37.0452ZM21.6337 22.1507C21.6341 22.1502 21.6349 22.1502 21.6354 22.1498L23.7987 20.6703C23.7991 20.6699 23.7995 20.6695 23.7999 20.6691L25.8657 22.0116L22.1365 24.5628L21.6337 22.1507ZM21.0457 18.967C21.0635 18.9547 21.097 18.9348 21.1407 18.9407L23.0301 20.1684L21.4463 21.2519L20.9868 19.0463C20.9995 19.0043 21.0275 18.9793 21.0457 18.967ZM39.1069 41.8041C39.0421 42.1501 38.8462 42.4502 38.5554 42.649L36.769 43.8712C36.1687 44.2807 35.3467 44.1272 34.9364 43.527L34.2416 42.5112L38.204 39.8007L38.8988 40.8164C39.098 41.1076 39.1722 41.4582 39.1069 41.8041Z" fill="#1B1B1B"/>
<path d="M27.2994 30.1989C27.5075 30.8937 27.9221 31.7135 28.4656 32.508C29.0091 33.3028 29.6233 33.9862 30.1952 34.4326C30.7281 34.848 31.1316 34.9841 31.4318 34.9841C31.6344 34.9841 31.7892 34.9222 31.9049 34.8429C32.1927 34.6462 32.4674 34.1842 32.1423 33.1006C31.9337 32.4058 31.5195 31.5859 30.9761 30.7915C30.4326 29.9966 29.8188 29.3137 29.2465 28.8673C28.3545 28.1708 27.8246 28.259 27.5368 28.4565C27.2489 28.6532 26.9738 29.1149 27.2994 30.1989ZM27.9993 29.1641C28.0073 29.1624 28.0158 29.1611 28.026 29.1611C28.2803 29.1611 29.2265 29.7355 30.2762 31.2701C31.3673 32.8658 31.5318 33.9807 31.442 34.1358C31.2334 34.1939 30.2554 33.6242 29.1651 32.0298C28.0739 30.4341 27.9094 29.3192 27.9993 29.1641Z" fill="#1B1B1B"/>
<path d="M15.9751 11.5182C15.9616 11.4851 15.9438 11.4542 15.9217 11.4254C15.7318 11.174 15.4419 11.0303 15.1273 11.0303C14.8123 11.0303 14.5224 11.174 14.3324 11.4254C14.3104 11.4538 14.2926 11.4851 14.279 11.5182L11.9114 17.2039C11.8898 17.2556 11.8788 17.3111 11.8788 17.3671V39.9927C11.8788 41.1869 12.8508 42.1585 14.045 42.1585H16.2087C17.4029 42.1585 18.375 41.1869 18.375 39.9927V17.3671C18.375 17.3111 18.364 17.2556 18.3423 17.2039L15.9751 11.5182ZM13.8153 14.8379C13.8161 14.8379 13.8165 14.8384 13.8174 14.8384H16.4376C16.4385 14.8384 16.4389 14.8379 16.4398 14.8379L17.3868 17.1123H12.8678L13.8153 14.8379ZM17.5276 17.9601V35.4228H12.7266V17.9601H17.5276ZM12.7266 36.2706H17.5276V37.9138H12.7266V36.2706ZM15.034 11.9099C15.1014 11.8561 15.1515 11.8548 15.2197 11.9099L16.0858 13.9901H14.168L15.034 11.9099ZM16.2092 41.3107H14.045C13.318 41.3107 12.7266 40.7193 12.7266 39.9927V38.762H17.5276V39.9927C17.5276 40.7193 16.9362 41.3107 16.2092 41.3107Z" fill="#1B1B1B"/>
<path d="M15.1269 31.1133C16.1778 31.1133 16.6479 29.17 16.6479 27.2441C16.6479 25.3183 16.1778 23.375 15.1269 23.375C14.0764 23.375 13.6063 25.3183 13.6063 27.2441C13.6063 29.17 14.0768 31.1133 15.1269 31.1133ZM15.1095 24.2207C15.3062 24.2983 15.8001 25.3106 15.8001 27.2446C15.8001 29.1785 15.3062 30.1908 15.1443 30.2684C14.948 30.1908 14.4541 29.1777 14.4541 27.2446C14.4541 25.3115 14.948 24.2979 15.1095 24.2207Z" fill="#1B1B1B"/>
<path d="M45.5896 32.9143L36.2484 12.3074C35.755 11.22 34.4679 10.7363 33.3806 11.2285L31.4098 12.1221C30.3224 12.6156 29.8383 13.9018 30.3309 14.99L39.6724 35.5969C39.6958 35.6477 39.7288 35.6939 39.7695 35.7317L44.2733 39.9323C44.2996 39.9569 44.3288 39.9777 44.3602 39.9946C44.5094 40.0752 44.6718 40.1163 44.8345 40.1163C44.9744 40.1163 45.1143 40.0862 45.247 40.0264C45.534 39.8963 45.7379 39.6457 45.8079 39.3388C45.8159 39.3036 45.8189 39.2676 45.818 39.2316L45.6273 33.0762C45.6252 33.0203 45.6124 32.9651 45.5896 32.9143ZM42.4801 37.1005L40.6788 35.4205L44.7938 33.5552L44.8702 36.0174C44.8697 36.0178 44.8689 36.0174 44.8685 36.0178L42.4818 37.0997C42.4813 37.0997 42.4809 37.1005 42.4801 37.1005ZM31.9617 16.5326L36.3345 14.5504L37.0127 16.0468L32.64 18.0291L31.9617 16.5326ZM31.7599 12.8949L33.7307 12.0013C34.3925 11.7003 35.1755 11.9954 35.4756 12.658L35.9835 13.7784L31.6107 15.7607L31.1028 14.6402C30.8035 13.9776 31.0982 13.1951 31.7599 12.8949ZM32.9901 18.8019L37.3629 16.8196L44.5726 32.7239L40.1998 34.7062L32.9901 18.8019ZM44.8977 39.2545C44.8774 39.2634 44.8409 39.2744 44.7998 39.2634L43.152 37.7266L44.899 36.9348L44.9689 39.1866C44.9494 39.2261 44.9176 39.2456 44.8977 39.2545Z" fill="#1B1B1B"/>
<path d="M40.6865 27.1089C40.6017 26.3886 40.3359 25.509 39.9382 24.6319C39.1434 22.8781 37.9157 21.3024 36.9555 21.7356C36.638 21.8798 36.2874 22.2872 36.4197 23.4106C36.5045 24.1308 36.7703 25.0104 37.1679 25.8875C37.8729 27.4421 38.9195 28.8563 39.8145 28.8563C39.9293 28.8563 40.0417 28.833 40.1506 28.7838C40.4681 28.6396 40.8191 28.2323 40.6865 27.1089ZM39.8174 28.0063C39.8161 28.0067 39.8144 28.0067 39.8128 28.0067C39.5936 28.0067 38.7326 27.2852 37.9403 25.5374C37.1416 23.7768 37.173 22.65 37.2887 22.5131C37.2904 22.5127 37.2917 22.5127 37.2934 22.5127C37.5125 22.5127 38.3735 23.2338 39.1658 24.982C39.9645 26.743 39.9331 27.8694 39.8174 28.0063Z" fill="#1B1B1B"/>
</svg>
