<svg width="56" height="56" viewBox="0 0 56 56" fill="none" xmlns="http://www.w3.org/2000/svg">
<circle cx="28" cy="28" r="28" fill="#883C88" fill-opacity="0.1"/>
<g clip-path="url(#clip0)">
<path fill-rule="evenodd" clip-rule="evenodd" d="M31.1915 13.0718C30.224 13.0536 29.2472 13.2891 28.3683 13.789C26.3594 14.9316 25.2787 17.2151 25.6651 19.4937C25.6965 19.6797 25.8004 19.8457 25.954 19.9552C26.1076 20.0647 26.2983 20.1088 26.4844 20.0778C26.5767 20.0622 26.665 20.0285 26.7443 19.9787C26.8236 19.929 26.8923 19.864 26.9465 19.7877C27.0007 19.7114 27.0393 19.6251 27.0601 19.5338C27.0809 19.4426 27.0835 19.3481 27.0677 19.2558C26.7807 17.5626 27.5795 15.8757 29.0723 15.0266C30.5651 14.1776 32.4238 14.3532 33.7323 15.4654C35.0408 16.5776 35.5123 18.3822 34.9149 19.9922C34.8495 20.1694 34.857 20.3653 34.936 20.5368C35.0149 20.7083 35.1587 20.8415 35.3358 20.907C35.5125 20.9724 35.708 20.9651 35.8793 20.8867C36.0506 20.8083 36.1839 20.6652 36.2499 20.4887C37.054 18.3219 36.4154 15.8772 34.6544 14.3803C33.7739 13.6319 32.7053 13.1983 31.6052 13.095C31.4676 13.082 31.3297 13.0743 31.1915 13.0718ZM30.8462 15.2599C30.6639 15.2598 30.489 15.332 30.3599 15.4606C30.2308 15.5892 30.158 15.7638 30.1574 15.946V16.2761C29.9735 16.3453 29.8053 16.4334 29.6636 16.5526C29.3243 16.84 29.1525 17.2437 29.1525 17.7378C29.1525 18.001 29.2026 18.2343 29.3076 18.4365C29.4105 18.6344 29.5495 18.8088 29.7213 18.9575C29.8949 19.1078 30.1453 19.26 30.4776 19.4162C30.8265 19.5821 31.0588 19.7029 31.1617 19.7722V19.7747C31.2511 19.8337 31.3195 19.8929 31.3698 19.953L31.3924 19.9782L31.4222 19.9833C31.8415 20.0469 32.2542 20.1292 32.6552 20.2312L32.7599 20.2591L32.7578 20.149C32.7551 19.7923 32.6564 19.4828 32.4622 19.2316C32.262 18.9708 31.908 18.7256 31.3996 18.4825C31.022 18.3023 30.7805 18.1759 30.6883 18.1147H30.6856C30.5924 18.0485 30.5283 17.982 30.4901 17.9217C30.4521 17.8599 30.4324 17.7885 30.4324 17.701C30.4324 17.5593 30.4794 17.4586 30.5776 17.3729C30.673 17.2895 30.8159 17.2423 31.0184 17.2423C31.1925 17.2423 31.3674 17.265 31.5474 17.3099H31.5501C31.5723 17.315 31.5938 17.3215 31.6177 17.3277C31.8061 17.3797 31.988 17.4035 32.1414 17.3901C32.2947 17.3766 32.436 17.3239 32.4894 17.1952C32.6381 16.8367 32.4691 16.4073 32.0936 16.2904C32.0192 16.2673 31.9456 16.247 31.8729 16.228C31.7631 16.1993 31.6495 16.1798 31.5348 16.163V15.9469C31.5343 15.7646 31.4615 15.5901 31.3323 15.4614C31.2032 15.3328 31.0283 15.2607 30.8461 15.2608L30.8462 15.2599ZM29.2049 20.7539C27.0202 20.7578 24.914 21.3251 23.0593 22.2971C22.9874 22.24 22.9228 22.1891 22.8412 22.1247C21.388 20.8884 19.387 20.7259 17.4998 21.0297C17.3908 21.0472 17.2873 21.0899 17.1977 21.1543C17.108 21.2186 17.0345 21.303 16.983 21.4006C16.9315 21.4983 16.9034 21.6065 16.901 21.7169C16.8985 21.8273 16.9217 21.9367 16.9688 22.0366L18.8805 26.0907C18.0307 27.4754 17.5276 29.0053 17.5276 30.5798C17.5276 30.6534 17.5376 30.7269 17.5402 30.8005L15.6311 31.1889C15.5341 31.2089 15.4423 31.2488 15.3616 31.3062C15.2809 31.3636 15.2131 31.4372 15.1625 31.5223C15.1118 31.6073 15.0795 31.7021 15.0675 31.8004C15.0555 31.8986 15.0641 31.9983 15.0928 32.0931C15.0928 32.0931 15.3878 33.074 15.9068 34.1401C16.4258 35.2061 17.0993 36.4498 18.3369 36.8711C19.0457 37.1124 19.7062 37.0133 20.3236 36.9109C20.7596 37.3427 21.2419 37.7301 21.7494 38.0862V41.3781C21.7494 42.2257 22.455 42.9292 23.3026 42.9292H25.5577C26.4053 42.9292 27.1082 42.2257 27.1082 41.3781V40.1756C27.8092 40.2851 28.5075 40.4063 29.2327 40.4063C30.4039 40.4063 31.4884 40.1519 32.5577 39.8826V41.3781C32.5577 42.2257 33.2632 42.9292 34.1108 42.9292H36.3659C37.2135 42.9292 37.919 42.2257 37.919 41.3781V37.074C39.7442 35.3525 40.9378 33.0983 40.9378 30.5798C40.9377 25.0824 35.6227 20.7539 29.2327 20.7539H29.2081C29.2072 20.7539 29.2063 20.7539 29.2055 20.7539H29.2049ZM29.2076 22.1797H29.2103H29.2328C34.9846 22.1797 39.5127 26.0109 39.5127 30.5798C39.5127 32.7866 38.4797 34.7978 36.7392 36.3176C36.6624 36.3842 36.6007 36.4664 36.5583 36.5588C36.5159 36.6512 36.4937 36.7516 36.4933 36.8532V41.3781C36.4933 41.4613 36.4486 41.506 36.3654 41.506H34.1109C34.0277 41.506 33.983 41.4612 33.983 41.3781V39.058C33.9829 38.9454 33.9561 38.8345 33.9049 38.7342C33.8537 38.634 33.7794 38.5474 33.6882 38.4814C33.597 38.4154 33.4915 38.372 33.3802 38.3547C33.269 38.3374 33.1553 38.3467 33.0483 38.3818C31.8705 38.7676 30.5833 38.9804 29.2328 38.9804C28.3168 38.9804 27.4174 38.8791 26.5521 38.6874C26.4479 38.6642 26.3397 38.6647 26.2357 38.689C26.1317 38.7132 26.0344 38.7605 25.9512 38.8274C25.8679 38.8943 25.8008 38.9791 25.7547 39.0754C25.7087 39.1718 25.6848 39.2773 25.6851 39.3841V41.3781C25.6851 41.4613 25.641 41.506 25.5578 41.506H23.3027C23.2195 41.506 23.1748 41.4612 23.1748 41.3781V37.7581C23.1749 37.6391 23.1451 37.5219 23.0883 37.4173C23.0314 37.3128 22.9493 37.2241 22.8493 37.1595C22.2098 36.7448 21.6281 36.2668 21.1205 35.7336C21.0344 35.6436 20.9261 35.5777 20.8065 35.5425C20.687 35.5074 20.5603 35.5043 20.4391 35.5334C19.901 35.6613 19.3052 35.6962 18.7958 35.5232C18.3732 35.3793 17.6482 34.4667 17.187 33.5193C16.91 32.9503 16.8708 32.7614 16.7488 32.4143L18.4246 32.0736C18.5984 32.0382 18.7528 31.9392 18.8575 31.796C18.9622 31.6528 19.0097 31.4757 18.9907 31.2993C18.9654 31.0599 18.9536 30.8204 18.9536 30.5801C18.9536 29.1547 19.3962 27.7506 20.2561 26.4915C20.3262 26.3887 20.3681 26.2694 20.3778 26.1455C20.3874 26.0215 20.3645 25.8971 20.3111 25.7848L18.7255 22.4224C19.9721 22.3743 21.1365 22.5427 21.9199 23.2092C21.9265 23.2153 21.9331 23.2213 21.9398 23.2272C22.1497 23.3929 22.3164 23.5253 22.496 23.668C22.6081 23.7567 22.7442 23.8097 22.8868 23.82C23.0294 23.8303 23.1718 23.7974 23.2954 23.7257C25.0174 22.7283 27.0858 22.1845 29.2076 22.1799L29.2076 22.1797ZM21.4744 28.2484C21.2069 28.254 20.9522 28.3643 20.7649 28.5555C20.5777 28.7467 20.4728 29.0036 20.4728 29.2712C20.4728 29.4056 20.4992 29.5387 20.5506 29.6628C20.6019 29.787 20.6773 29.8998 20.7722 29.9948C20.8672 30.0898 20.98 30.1653 21.1041 30.2167C21.2282 30.2682 21.3613 30.2947 21.4956 30.2947C21.63 30.2947 21.7632 30.2683 21.8874 30.2169C22.0115 30.1655 22.1244 30.0901 22.2194 29.995C22.3145 29.9 22.3899 29.7872 22.4413 29.663C22.4927 29.5388 22.5192 29.4056 22.5191 29.2712C22.5191 29.1369 22.4926 29.0038 22.4411 28.8797C22.3896 28.7556 22.3142 28.6428 22.2192 28.5478C22.1242 28.4529 22.0114 28.3775 21.8872 28.3261C21.763 28.2748 21.63 28.2484 21.4956 28.2484C21.4886 28.2483 21.4815 28.2483 21.4744 28.2484H21.4744Z" fill="black"/>
</g>
<defs>
<clipPath id="clip0">
<rect width="33.9394" height="42.4242" fill="white" transform="translate(11.0303 11.0303)"/>
</clipPath>
</defs>
</svg>
