<svg width="56" height="56" viewBox="0 0 56 56" fill="none" xmlns="http://www.w3.org/2000/svg">
<circle cx="28" cy="28" r="28" fill="#883C88" fill-opacity="0.1"/>
<path d="M32.1641 23.558C33.0664 23.558 33.8299 22.8293 33.8299 21.8923C33.8299 20.99 33.1011 20.2266 32.1641 20.2266C31.2619 20.2266 30.4984 20.9553 30.4984 21.8923C30.5331 22.8293 31.2619 23.558 32.1641 23.558Z" fill="black"/>
<path d="M26.3341 23.2456C27.4793 23.2456 28.4163 22.3086 28.4163 21.1635C28.4163 20.0183 27.4793 19.0813 26.3341 19.0813C25.1889 19.0813 24.252 20.0183 24.252 21.1635C24.252 22.3086 25.1889 23.2456 26.3341 23.2456Z" fill="black"/>
<path d="M20.4694 23.558C21.3717 23.558 22.1351 22.8293 22.1351 21.8923C22.1351 20.99 21.4064 20.2266 20.4694 20.2266C19.5324 20.2266 18.8037 20.9553 18.8037 21.8923C18.8384 22.8293 19.5671 23.558 20.4694 23.558Z" fill="black"/>
<path d="M22.5862 25.8136V27.514H30.082V25.8136C30.082 24.8072 29.2838 23.9744 28.2428 23.9744H24.3908C23.4191 24.0091 22.5862 24.8072 22.5862 25.8136Z" fill="black"/>
<path d="M35.1486 26.924V25.6053C35.1486 24.8071 34.5239 24.1825 33.7257 24.1825H30.6719C30.4984 24.1825 30.3596 24.2172 30.2208 24.2519C30.7066 24.5989 31.019 25.1195 31.019 25.7441V26.9587H35.1486V26.924Z" fill="black"/>
<path d="M17.5197 25.6053V26.924H21.7187V25.7094C21.7187 25.1195 22.031 24.599 22.5168 24.2519C22.3433 24.1825 22.2045 24.1478 21.9963 24.1478H18.9425C18.179 24.1478 17.5197 24.7725 17.5197 25.6053Z" fill="black"/>
<path d="M40.8745 41.2909C42.7484 39.2781 43.8589 36.5713 43.8589 33.5869C43.8589 30.4984 42.6096 27.6875 40.5969 25.64C39.7293 32.9275 33.4828 38.5147 25.9177 38.4799H22.2739C24.0785 42.3319 27.9998 45.004 32.5459 44.9693L44.9 44.9346L40.8745 41.2909Z" fill="black"/>
<path d="M35.3915 14.8128C32.9623 12.4184 29.7697 11.065 26.3341 11.0303C19.2548 11.0303 13.4942 16.7562 13.4942 23.8355C13.4942 26.7158 14.4659 29.5614 16.201 31.7824L16.3051 31.9212L11.0303 36.606L26.3341 36.6754C33.3787 36.6754 39.1393 30.9495 39.1393 23.8702C39.1393 20.4347 37.786 17.242 35.3915 14.8128ZM26.3341 35.0444L15.4028 35.0097L18.6996 32.0253L18.1096 31.4007C16.201 29.3185 15.1946 26.6464 15.1946 23.8008C15.1946 17.6932 20.1918 12.696 26.3341 12.696C29.3532 12.696 32.1641 13.8759 34.2463 15.9927C36.3284 18.1096 37.4736 20.9205 37.4736 23.9049C37.4736 30.0473 32.4765 35.0444 26.3341 35.0444Z" fill="black"/>
</svg>
