<svg width="56" height="56" viewBox="0 0 56 56" fill="none" xmlns="http://www.w3.org/2000/svg">
<circle cx="28" cy="28" r="28" fill="#883C88" fill-opacity="0.1"/>
<path d="M35.1273 39.234C35.0933 39.0982 34.8557 38.9964 35.0594 38.8267C35.1612 38.7588 35.2291 38.7928 35.297 38.8946C35.3648 38.9964 35.297 39.1322 35.1273 39.234Z" fill="white"/>
<path d="M34.5842 39.743C34.5164 39.6412 34.4485 39.5733 34.4485 39.5054C34.4824 39.4375 34.5503 39.3357 34.6182 39.3018C34.7539 39.3018 34.7879 39.4036 34.7879 39.5054C34.7539 39.5733 34.6861 39.6412 34.5842 39.743Z" fill="white"/>
<path d="M34.8558 39.4375C34.8218 39.3018 34.6521 39.1999 34.8218 39.0642C34.8558 39.0302 34.9576 39.0981 34.9915 39.1321C35.0933 39.2678 35.0255 39.3696 34.8558 39.4375Z" fill="white"/>
<path d="M35.5006 38.7926C35.5685 38.7247 35.6024 38.6569 35.6364 38.6569C35.6703 38.6229 35.7382 38.6229 35.7721 38.6229C35.8061 38.6569 35.84 38.7248 35.8739 38.7587C35.84 38.7926 35.7721 38.8266 35.7382 38.8266C35.6364 38.8605 35.5685 38.8266 35.5006 38.7926Z" fill="white"/>
<path d="M34.3127 39.5393C34.3806 39.6411 34.4485 39.709 34.4485 39.7769C34.4485 39.8108 34.3806 39.8787 34.3467 39.9126C34.3127 39.8448 34.2449 39.7769 34.2109 39.709C34.2109 39.6751 34.2788 39.6411 34.3127 39.5393Z" fill="white"/>
<path d="M40.2521 33.0909C39.743 30.4776 38.4194 28.2715 36.8242 26.1673C35.9418 25.0133 34.8218 24.4364 33.4303 24.1309C30.3418 23.4861 27.2194 23.5539 24.1309 23.9951C22.0946 24.3006 20.3636 24.9794 19.2776 26.9139C17.6485 29.7648 16.0533 32.5818 15.6461 35.9079C15.3067 38.657 16.4267 41.6776 19.617 42.8654C22.1285 43.8157 24.7418 44.0533 27.3891 43.8836C29.12 43.7818 30.0024 42.8654 29.9685 41.44C29.9346 40.0485 29.0182 39.3018 27.2533 39.2339C25.7939 39.166 24.3006 39.166 22.8412 39.0642C21.7552 38.9964 20.703 38.7588 20.16 37.503C20.6352 37.4351 21.0085 37.3673 21.3818 37.2994C22.0946 37.1636 22.8412 37.0618 23.5539 36.8921C24.063 36.7903 24.3006 36.5188 24.063 35.9418C23.7576 35.1612 23.52 34.3806 23.3503 33.566C23.2146 32.9212 23.2824 32.2424 23.9952 31.903C24.6739 31.5636 25.3188 31.903 25.76 32.3442C26.4388 33.023 27.0497 33.7358 27.5588 34.5164C28.6449 36.1115 30.0024 37.1976 32.1067 36.9939C32.1746 36.9939 32.2424 37.0618 32.4461 37.1297C32.0727 37.503 31.7673 37.7745 31.4958 38.08C30.5794 39.1661 30.7491 40.5236 31.9709 41.1006C32.5818 41.406 33.3964 41.5418 34.0752 41.4739C36.2812 41.2364 37.6388 39.743 39.0642 38.2497C40.4897 36.7564 40.5915 34.9576 40.2521 33.0909ZM32.0388 36.417C29.7309 36.417 28.2376 35.0254 28.2376 32.8873C28.2376 30.5794 29.9006 29.0182 32.3442 29.0182C34.4146 29.0182 35.7382 30.3418 35.7382 32.4461C35.7382 34.72 34.177 36.417 32.0388 36.417ZM28.3394 22.3321C31.8352 22.3321 33.6339 19.6509 33.3964 17.377C33.5661 14.6279 31.3939 12.1842 27.8982 12.0824C24.8776 12.0145 22.5697 14.2885 22.5697 17.2412C22.6036 20.2957 25.1491 22.3321 28.3394 22.3321Z" fill="black"/>
</svg>
