<svg width="56" height="56" viewBox="0 0 56 56" fill="none" xmlns="http://www.w3.org/2000/svg">
<circle cx="28" cy="28" r="28" fill="#883C88" fill-opacity="0.1"/>
<g clip-path="url(#clip0)">
<path d="M36.9105 14.0458C34.7452 14.0458 32.9898 12.2737 32.9898 10.0878C32.9898 9.74384 33.0375 9.41214 33.1191 9.09412C32.1758 9.81723 31.564 10.9577 31.564 12.246C31.564 14.4318 33.3194 16.204 35.4847 16.204C37.3107 16.204 38.8395 14.9431 39.2764 13.2389C38.6189 13.7429 37.8007 14.0458 36.9105 14.0458Z" fill="black"/>
<path d="M45.109 38.5741H35.1711V37.7934H44.3924C44.4968 37.7934 44.5937 37.769 44.6821 37.7291C44.6828 37.7287 44.6835 37.7291 44.6846 37.7287C44.6974 37.7229 44.7049 37.7114 44.7174 37.7053C44.7862 37.669 44.851 37.6276 44.9038 37.5715C44.9433 37.5305 44.9679 37.4805 44.9961 37.4319C45.0128 37.4031 45.0356 37.379 45.0481 37.3477C45.1204 37.1725 45.1268 36.9703 45.0449 36.7832L42.1922 30.3058C42.1868 30.2932 42.1758 30.2857 42.1697 30.2738L41.5479 17.7175C41.9602 17.6179 42.257 17.3545 42.257 17.0426C42.257 16.6455 41.7785 16.3231 41.1883 16.3231C40.5968 16.3231 40.1189 16.6455 40.1189 17.0426C40.1189 17.3545 40.415 17.6175 40.8277 17.7172L40.5504 22.7592C40.5144 22.775 40.4756 22.7804 40.4417 22.8027C40.369 22.8502 38.6531 23.9525 36.9483 22.8049C36.665 22.6138 36.4073 22.4365 36.1675 22.2706C34.5888 21.1824 33.6363 20.5251 31.5644 20.5251H24.4357C22.3641 20.5251 21.4116 21.1816 19.8339 22.2699C19.5937 22.4358 19.3354 22.6138 19.0517 22.8049C17.3533 23.9489 15.6449 22.8603 15.5594 22.8034C15.5251 22.7804 15.4859 22.7747 15.4496 22.7585L15.1723 17.7172C15.5847 17.6172 15.8811 17.3542 15.8811 17.0426C15.8811 16.6455 15.4026 16.3231 14.8121 16.3231C14.2212 16.3231 13.7426 16.6455 13.7426 17.0426C13.7426 17.3545 14.0391 17.6175 14.4521 17.7175L13.8299 30.2749C13.8239 30.2864 13.8135 30.2939 13.8082 30.3058L10.9558 36.7832C10.9159 36.8732 10.891 36.9714 10.891 37.0772C10.891 37.1624 10.912 37.2419 10.9395 37.3178C10.9412 37.3225 10.9405 37.3272 10.9423 37.3319C10.974 37.415 11.0214 37.4887 11.0799 37.5535C11.0827 37.5567 11.0841 37.561 11.087 37.5643C11.2167 37.7035 11.3974 37.7931 11.6005 37.7931H20.8289V38.5522H10.891C10.5008 38.5522 10.1818 38.8957 10.1818 39.2897C10.1818 39.6836 10.5011 40.0056 10.891 40.0056H20.882C20.933 40.1743 21.0509 40.3222 21.2116 40.4139C21.2754 40.4499 22.8288 41.3378 24.4392 41.3378C25.6665 41.3378 26.943 41.3378 27.4327 41.8965C27.4398 41.9109 27.4541 41.9109 27.468 41.9253C27.4822 41.9397 27.4893 41.954 27.5032 41.9681C27.5385 42.0037 27.5884 42.0181 27.6308 42.0469C27.6593 42.0613 27.6875 42.0828 27.716 42.0969C27.8083 42.1328 27.9006 42.1541 27.9997 42.1541C28.0987 42.1541 28.191 42.1325 28.2833 42.0969C28.3186 42.0825 28.34 42.0613 28.3685 42.0469C28.4109 42.0181 28.4608 42.004 28.4961 41.9681C28.5103 41.9537 28.5174 41.9393 28.5313 41.9253C28.5456 41.9109 28.5599 41.9109 28.5738 41.8965C29.0559 41.3378 30.3328 41.3378 31.5672 41.3378C33.1701 41.3378 34.7235 40.4499 34.7948 40.4139C34.947 40.3243 35.0553 40.1736 35.1091 40.0056H45.109C45.4992 40.0056 45.8182 39.6833 45.8182 39.2897C45.8182 38.8965 45.4989 38.5741 45.109 38.5741ZM35.1711 34.915H36.0225C36.9679 34.915 37.7672 35.5403 37.9475 36.3616H35.1715V34.915H35.1711ZM34.6818 29.1578C34.3839 29.0506 34.0507 29.1362 33.8447 29.3726C33.8376 29.3798 33.3198 29.9169 32.3056 29.9309C32.4759 28.7851 33.3554 27.9116 34.4124 27.9116C35.597 27.9116 36.5545 29.0003 36.5545 30.3393C36.5545 31.3703 35.9801 32.2582 35.1715 32.6021V29.8737C35.1711 29.5586 34.9797 29.2722 34.6818 29.1578ZM41.4 32.033L43.3062 36.3616H39.3684C39.1945 34.8751 37.9668 33.6972 36.4002 33.521C36.9087 33.1447 37.325 32.632 37.5994 32.0283C37.6072 32.0287 37.614 32.033 37.6222 32.033H41.4ZM14.6075 32.0157C14.6367 32.0193 14.662 32.033 14.692 32.033H19.7987C20.0923 32.4539 20.4351 32.831 20.8285 33.1393V33.4112H19.9562C19.0624 33.4184 18.2114 33.7836 17.5728 34.4423C17.055 34.9712 16.7364 35.654 16.6384 36.3616H12.6938L14.6075 32.0157ZM18.0714 36.3616C18.154 36.0263 18.3262 35.7069 18.5802 35.445C18.9562 35.0582 19.4455 34.8434 19.9633 34.8434H20.8285V36.3616H18.0714ZM27.241 40.0635C27.092 40.0207 26.943 39.9775 26.7869 39.9488C26.0564 39.8056 25.2407 39.8056 24.4392 39.8056C23.6378 39.8056 22.8078 39.4832 22.3395 39.2757V31.2344C22.7226 31.3703 23.1838 31.4635 23.7226 31.4635C24.3822 31.4635 25.1908 31.6639 25.9003 31.9434C26.4324 32.1582 26.9006 32.409 27.2053 32.6593C27.2196 32.6593 27.2267 32.6737 27.2406 32.6809V40.0635H27.241ZM26.8579 30.7044C25.8647 30.2461 24.6801 29.9309 23.7226 29.9309C22.687 29.9309 22.1692 29.3866 22.1549 29.3726C21.9493 29.1362 21.6158 29.0503 21.3178 29.1578C21.0199 29.2726 20.8285 29.559 20.8285 29.8737V31.034C20.4383 30.4037 20.2113 29.6306 20.2113 28.7999C20.2113 26.6158 21.8003 24.8328 23.7507 24.8328C25.7011 24.8328 27.2901 26.6158 27.2901 28.7999C27.2908 29.487 27.1348 30.1389 26.8579 30.7044ZM28.1703 31.2344C28.5178 30.504 28.7095 29.6734 28.7095 28.7995C28.7095 25.8207 26.4823 23.4003 23.7514 23.4003C21.0206 23.4003 18.7934 25.8207 18.7934 28.7995C18.7934 29.4312 18.8985 30.0367 19.0831 30.6008H15.8765L15.8815 30.5972L15.5398 24.386C16.0052 24.5752 16.6498 24.7612 17.3903 24.7612C18.1405 24.7612 18.9872 24.5695 19.8389 23.996C20.1276 23.8018 20.3902 23.6204 20.634 23.4528C22.1678 22.3947 22.8024 21.9569 24.4357 21.9569H31.5644C33.1976 21.9569 33.833 22.3947 35.3664 23.4528C35.6102 23.6212 35.8728 23.8018 36.1611 23.996C37.0132 24.5695 37.8595 24.7612 38.6097 24.7612C39.3502 24.7612 39.9949 24.5749 40.4603 24.386L40.1185 30.5969L40.1235 30.6005H37.9515C37.9572 30.5127 37.9725 30.4281 37.9725 30.3389C37.9725 28.2052 36.3763 26.4791 34.4117 26.4791C32.5248 26.4791 30.9642 28.0832 30.8652 30.1166C29.8937 30.3393 28.8938 30.7544 28.1703 31.2344ZM28.7591 32.6809C29.2345 32.287 30.1564 31.8646 31.0715 31.6355C31.4899 31.5283 31.9086 31.4635 32.2774 31.4635C32.3626 31.4635 32.4407 31.4635 32.5187 31.4563C32.9585 31.4347 33.3344 31.3488 33.6608 31.2344V39.276C33.1926 39.4836 32.363 39.8059 31.5683 39.8059C30.8021 39.8059 30.022 39.8059 29.3196 39.9347C29.2982 39.9347 29.2701 39.9419 29.2487 39.9491C29.0784 39.9779 28.9151 40.0135 28.7594 40.0639V32.6809H28.7591Z" fill="black"/>
</g>
<defs>
<clipPath id="clip0">
<rect width="35.6364" height="44.9697" fill="white" transform="translate(10.1818 7.63635)"/>
</clipPath>
</defs>
</svg>
