<svg width="56" height="56" viewBox="0 0 56 56" fill="none" xmlns="http://www.w3.org/2000/svg">
<circle cx="28" cy="28" r="28" fill="#883C88" fill-opacity="0.1"/>
<path d="M35.3077 41.5726C34.493 41.5751 33.686 41.4155 32.9336 41.103C32.1813 40.7905 31.4987 40.3314 30.9256 39.7524L27.9707 36.8055L25.0199 39.7564C24.4461 40.3341 23.7633 40.7922 23.011 41.1039C22.2588 41.4157 21.4521 41.575 20.6378 41.5726C19.4095 41.574 18.2084 41.2109 17.1866 40.5293C16.1647 39.8477 15.3681 38.8782 14.8976 37.7436C14.4271 36.6089 14.3039 35.3602 14.5435 34.1555C14.7831 32.9508 15.3748 31.8443 16.2436 30.9761L19.1945 28.0293L16.2436 25.0784C15.3752 24.209 14.7844 23.1014 14.5461 21.8959C14.3077 20.6903 14.4327 19.4412 14.905 18.3068C15.3773 17.1723 16.1758 16.2036 17.1992 15.5234C18.2227 14.8432 19.425 14.4821 20.6538 14.486C21.4691 14.4833 22.2768 14.6428 23.0298 14.9553C23.7828 15.2678 24.4661 15.727 25.04 16.3062L27.9707 19.253L30.9216 16.3022C31.4949 15.713 32.1797 15.2436 32.936 14.9212C33.6923 14.5989 34.5051 14.43 35.3272 14.4244C36.1493 14.4188 36.9643 14.5766 37.725 14.8886C38.4856 15.2007 39.1766 15.6607 39.758 16.2421C40.3393 16.8234 40.7993 17.5144 41.1114 18.275C41.4234 19.0357 41.5812 19.8507 41.5756 20.6728C41.57 21.4949 41.4011 22.3077 41.0788 23.064C40.7564 23.8203 40.287 24.5051 39.6978 25.0784L36.747 28.0293L39.6978 30.9761C40.5677 31.8453 41.1597 32.9533 41.3988 34.1595C41.6379 35.3657 41.5133 36.6157 41.0408 37.751C40.5683 38.8863 39.7692 39.8556 38.745 40.536C37.7207 41.2164 36.5173 41.5772 35.2877 41.5726H35.3077ZM20.6859 27.5401L31.9119 38.7661C32.3555 39.2129 32.8833 39.5674 33.4648 39.8089C34.0464 40.0505 34.67 40.1743 35.2997 40.1733C36.2467 40.1678 37.1709 39.8829 37.9567 39.3544C38.7425 38.8259 39.3548 38.0772 39.717 37.2022C40.0791 36.3272 40.175 35.3648 39.9926 34.4355C39.8102 33.5063 39.3576 32.6515 38.6915 31.9784L35.7447 29.0316L24.0256 17.3005C23.5943 16.7968 23.0636 16.3878 22.4667 16.099C21.8698 15.8102 21.2197 15.6479 20.5571 15.6224C19.8945 15.5968 19.2338 15.7084 18.6164 15.9503C17.999 16.1922 17.4383 16.559 16.9694 17.0279C16.5005 17.4968 16.1336 18.0575 15.8918 18.6749C15.6499 19.2923 15.5382 19.953 15.5638 20.6156C15.5894 21.2782 15.7517 21.9283 16.0405 22.5252C16.3293 23.1221 16.7383 23.6528 17.2419 24.0841L20.6859 27.5401ZM20.1888 29.0316L17.2419 31.9784C16.5786 32.6519 16.1284 33.506 15.9475 34.4339C15.7667 35.3618 15.8632 36.3224 16.225 37.1958C16.5868 38.0692 17.198 38.8166 17.9821 39.3447C18.7661 39.8728 19.6885 40.1582 20.6338 40.1653C21.2635 40.1663 21.8871 40.0425 22.4686 39.8009C23.0501 39.5594 23.578 39.2049 24.0216 38.7581L26.9724 35.8112L20.1888 29.0316ZM28.965 20.2473L35.7527 27.035L38.6995 24.0841C39.2032 23.6528 39.6122 23.1221 39.901 22.5252C40.1898 21.9283 40.3521 21.2782 40.3777 20.6156C40.4032 19.953 40.2916 19.2923 40.0497 18.6749C39.8078 18.0575 39.441 17.4968 38.9721 17.0279C38.5032 16.559 37.9425 16.1922 37.3251 15.9503C36.7077 15.7084 36.047 15.5968 35.3844 15.6224C34.7218 15.6479 34.0717 15.8102 33.4748 16.099C32.8779 16.3878 32.3472 16.7968 31.9159 17.3005L28.965 20.2473Z" fill="black"/>
<path d="M30.9055 26.0246C31.0935 26.2022 31.2432 26.4163 31.3455 26.6538C31.4479 26.8913 31.5006 27.1472 31.5006 27.4058C31.5006 27.6644 31.4479 27.9203 31.3455 28.1577C31.2432 28.3952 31.0935 28.6093 30.9055 28.787L30.8655 28.8271L28.3236 31.2326C28.2294 31.3235 28.1036 31.3743 27.9728 31.3743C27.8419 31.3743 27.7161 31.3235 27.622 31.2326L25.0761 28.8271L25.036 28.787C24.848 28.6093 24.6983 28.3952 24.596 28.1577C24.4937 27.9203 24.4409 27.6644 24.4409 27.4058C24.4409 27.1472 24.4937 26.8913 24.596 26.6538C24.6983 26.4163 24.848 26.2022 25.036 26.0246C25.4296 25.6597 25.9466 25.4569 26.4833 25.4569C27.0201 25.4569 27.537 25.6597 27.9307 26.0246L27.9708 26.0647L28.0109 26.0246C28.4045 25.6597 28.9214 25.4569 29.4582 25.4569C29.995 25.4569 30.5119 25.6597 30.9055 26.0246Z" fill="black"/>
<path d="M21.8285 26.9627C21.7157 26.9606 21.6058 26.9255 21.5127 26.8617C21.4196 26.7979 21.3472 26.7081 21.3045 26.6036C21.2618 26.4991 21.2508 26.3843 21.2726 26.2736C21.2945 26.1628 21.3484 26.0609 21.4276 25.9804L25.922 21.482C26.0286 21.3762 26.1727 21.3169 26.3229 21.3169C26.4731 21.3169 26.6172 21.3762 26.7239 21.482C26.8277 21.5896 26.8858 21.7334 26.8858 21.8829C26.8858 22.0325 26.8277 22.1762 26.7239 22.2839L22.2375 26.7943C22.1837 26.8479 22.12 26.8903 22.0498 26.9192C21.9796 26.9481 21.9044 26.9629 21.8285 26.9627Z" fill="black"/>
<path d="M29.6105 34.7448C29.4599 34.744 29.3157 34.6834 29.2096 34.5764C29.1057 34.4688 29.0477 34.3251 29.0477 34.1755C29.0477 34.0259 29.1057 33.8822 29.2096 33.7746L33.704 29.2642C33.8151 29.1888 33.949 29.1546 34.0826 29.1673C34.2163 29.18 34.3413 29.2388 34.4363 29.3338C34.5312 29.4287 34.5901 29.5537 34.6028 29.6874C34.6155 29.821 34.5812 29.9549 34.5059 30.066L30.0195 34.5764C29.9657 34.63 29.9019 34.6725 29.8318 34.7013C29.7616 34.7302 29.6864 34.745 29.6105 34.7448Z" fill="black"/>
<path d="M18.986 21.6825C19.5108 21.6825 19.9362 21.2571 19.9362 20.7323C19.9362 20.2075 19.5108 19.7821 18.986 19.7821C18.4612 19.7821 18.0358 20.2075 18.0358 20.7323C18.0358 21.2571 18.4612 21.6825 18.986 21.6825Z" fill="black"/>
<path d="M20.6739 19.9947C21.1987 19.9947 21.6241 19.5693 21.6241 19.0445C21.6241 18.5197 21.1987 18.0943 20.6739 18.0943C20.1491 18.0943 19.7237 18.5197 19.7237 19.0445C19.7237 19.5693 20.1491 19.9947 20.6739 19.9947Z" fill="black"/>
<path d="M22.3898 21.7145C22.9146 21.7145 23.34 21.2891 23.34 20.7643C23.34 20.2396 22.9146 19.8141 22.3898 19.8141C21.8651 19.8141 21.4397 20.2396 21.4397 20.7643C21.4397 21.2891 21.8651 21.7145 22.3898 21.7145Z" fill="black"/>
<path d="M20.706 23.3986C21.2307 23.3986 21.6562 22.9731 21.6562 22.4484C21.6562 21.9236 21.2307 21.4982 20.706 21.4982C20.1812 21.4982 19.7558 21.9236 19.7558 22.4484C19.7558 22.9731 20.1812 23.3986 20.706 23.3986Z" fill="black"/>
<path d="M33.271 35.9635C33.7958 35.9635 34.2212 35.5381 34.2212 35.0133C34.2212 34.4885 33.7958 34.0631 33.271 34.0631C32.7462 34.0631 32.3208 34.4885 32.3208 35.0133C32.3208 35.5381 32.7462 35.9635 33.271 35.9635Z" fill="black"/>
<path d="M34.9549 34.2797C35.4797 34.2797 35.9051 33.8543 35.9051 33.3295C35.9051 32.8048 35.4797 32.3793 34.9549 32.3793C34.4301 32.3793 34.0047 32.8048 34.0047 33.3295C34.0047 33.8543 34.4301 34.2797 34.9549 34.2797Z" fill="black"/>
<path d="M36.6749 35.9996C37.1996 35.9996 37.625 35.5742 37.625 35.0494C37.625 34.5247 37.1996 34.0992 36.6749 34.0992C36.1501 34.0992 35.7247 34.5247 35.7247 35.0494C35.7247 35.5742 36.1501 35.9996 36.6749 35.9996Z" fill="black"/>
<path d="M34.991 37.6835C35.5157 37.6835 35.9412 37.2581 35.9412 36.7333C35.9412 36.2085 35.5157 35.7831 34.991 35.7831C34.4662 35.7831 34.0408 36.2085 34.0408 36.7333C34.0408 37.2581 34.4662 37.6835 34.991 37.6835Z" fill="black"/>
</svg>
