<svg width="56" height="56" viewBox="0 0 56 56" fill="none" xmlns="http://www.w3.org/2000/svg">
<circle cx="28" cy="28" r="28" fill="#883C88" fill-opacity="0.1"/>
<path d="M28 11.0303C37.3721 11.0303 44.9697 18.6279 44.9697 28C44.9697 37.3721 37.3721 44.9697 28 44.9697C18.6279 44.9697 11.0303 37.3721 11.0303 28C11.0303 18.6279 18.6279 11.0303 28 11.0303ZM28 12.8166C19.6144 12.8166 12.8166 19.6144 12.8166 28C12.8166 36.3855 19.6144 43.1834 28 43.1834C36.3856 43.1834 43.1834 36.3855 43.1834 28C43.1834 19.6144 36.3856 12.8166 28 12.8166ZM16.7343 23.7263C17.0553 23.4763 17.5078 23.4759 17.8291 23.7254L17.9133 23.7996L22.6447 28.5238L27.3685 23.8001L27.4526 23.7258C27.7738 23.4761 28.2262 23.4761 28.5474 23.7258L28.6315 23.8001L36.0383 31.2064V27.1068L36.0443 27.0027C36.0959 26.5585 36.4734 26.2137 36.9314 26.2137C37.3895 26.2137 37.767 26.5585 37.8186 27.0027L37.8246 27.1068V33.3588L37.8186 33.463C37.7709 33.873 37.4456 34.1983 37.0356 34.246L36.9314 34.252H30.6794L30.5753 34.246C30.1652 34.1983 29.8399 33.873 29.7923 33.463L29.7863 33.3588L29.7923 33.2547C29.8399 32.8446 30.1652 32.5193 30.5753 32.4717L30.6794 32.4657H34.7709L27.9991 25.6953L23.2769 30.4178L23.1929 30.4921C22.8719 30.7417 22.4197 30.7419 22.0985 30.4925L22.0144 30.4183L16.6513 25.0637L16.5769 24.9797C16.3269 24.6587 16.3265 24.2062 16.576 23.8849L16.6502 23.8007L16.7343 23.7263Z" fill="black"/>
</svg>
